<?xml version="1.0" encoding="utf-8"?>
<!-- Generator: Adobe Illustrator 18.1.0, SVG Export Plug-In . SVG Version: 6.00 Build 0)  -->
<svg version="1.1" id="Layer_2" xmlns="http://www.w3.org/2000/svg" xmlns:xlink="http://www.w3.org/1999/xlink" x="0px" y="0px"
	 viewBox="258.9 5.3 701.1 545.9" enable-background="new 258.9 5.3 701.1 545.9" xml:space="preserve">
<path fill="#303030" stroke="#303030" stroke-miterlimit="10" d="M546.2,542.9l-1.5-1.4l-3.5-1.4l-3.5-0.7l-6.2-1l-4.5-1.6
	c-0.6-0.5-1-0.8-1.5-1.2c-0.7-0.5-1.4-0.7-2-1.2c-0.8-0.2-1.7-0.6-2.8-0.7l-1.5-1l-3.5-2.1l-5.8-4.5l-2.8-2.1l-4.5-4.5l-2.4-2.4
	l-3.8-2.3l-2.1-1.6l-0.5-3l-1.4-12.9l-0.5-6l-0.5-11.7c-0.1-1.5-0.2-3.3-0.3-4.7c-0.2-0.2-0.5-0.5-0.7-0.6V467l0.5-7.3l0.7-17.9
	l-0.7-9.2l-0.6-1.4l-0.5-3.8l-0.5-9.7c0.1-3.3,0.2-6.6,0.5-9.8c0.3-0.3,0.7-0.7,1-1c0.3-1,0.7-2,1.2-2.9v-4.1c0-2.4,0.1-5,0.1-7.4
	c-0.3-1.2-0.7-2.3-1-3.7c-0.3-0.7-0.7-1.4-1-2.1l-0.5-3.8l2.8-11.9l1.6-11l1.2-14.2l0.5-10.9l0.7-2.3l0.5-2.8l-1.4-29.5l-1-3
	l-2.4-4.9l-1.4-7l-1.5-8.1l-0.8-8h1.9l9.2-9l1.2-2l0.1-4.1l0.6-1.4l3.3-3.3l1.2-2.2l1.3-6l1.2-5l1.2-1l1.2-3.3l0.7-2.9l0.1-3.3
	l1.2-0.6l1.2-3.8l1.6-4.9l2.7-4.5l2.8-7.2l2.1-11.5l0.7-8.4v-8.4l-0.6-3l-1.5-3.6l-0.7-4.9l-0.8-4l-2.4-8l-2.1-5l-3.4-5.6l-5.1-6
	l-0.6-5.6l-1.4-5.5l-2.1-6.2l1.3-1.6l1.2-6l-0.8-6.4v-7.4l-1.2-2.3l-1.6-3.5l-1.5-3.8l-3.3-2.8l-3.3-1.5l-2.9-1.5h-9.9l-7-1.5l2-7.4
	l1.2-4.9l0.8-2.3v-1.6l1.5-5.8l1.5-9.5v-5.8l-2-2.3l-1.4-5.6l-0.7-6.6l-1.5-2.7l-2.3-5.5l-3.8-4.9l-3.8-3.8l-4.5-3.3l-4.4-2L451,5.3
	h-9.2L435,5.8l-6.2,2l-6.7,4.9l-2.3,2.9l-3.3,3.8l-1.5,1.2l-2.4,4.9l-0.2,4.4l-1.2,2.9L410,36l0.3,8.5l1,12.6l0.1,2l-0.5,5.8
	l1.2,3.3l3.3,1.5l1.2,5.6l1.5,3h-1.6l-9.2,0.6l-6,0.8l-7.8,2l-6.6,1.2l-5.1,1.2c-0.7,0.3-1.3,0.6-1.9,0.8c-0.5,0.6-0.7,1.2-1.2,1.5
	c-0.8,0.5-1.6,0.7-2.7,1.2c-1.4,0.6-2.7,1.2-4.1,1.6c-0.8,1-1.7,1.9-2.8,2.8l-1.6,1.5l-2.6,4.9l-2.7,4.1l-1.6,4.9l0.8,2.8l4.1,11.4
	l1.5,2.7l4.1,9.1l-1.5,12.1l-2.3,9.4l-1.2,8L365,175l-0.7,9.8l-0.8,5.8l-0.1,2.7l-0.8,4.2l-1.3,5.3l-2.1,7l-2.3,7.2l-1.6,8
	l-0.3,17.6l-0.5,13.1v1.6l-0.6,5.1l-0.6,7.4l0.6,0.6v5.6l1.2,4.9l0.7,6.9l0.6,8.6l1.2,1.9l1.7,2.9l2.2,4.2l2.9,6.3l2.7,2.7l4.7,3.5
	l3.3,2.3l6,6l1.6-0.1l1.3-0.7l0.3-0.8l0.6-0.1v27.1l-0.3,15.7l0.1,8.6l-0.8,6.7l-1.3,8.4l-0.8,1.3l-0.6,1.9l-0.6,4.5l-1.5,4.9
	L375,415l-2.8,11.7l-1.2,5.5l-0.7,9l0.3,11.4l0.1,22.2l-0.3,0.5l-0.3,0.8l-0.1,5.1l-0.3,2.8l0.5,7l0.3,6.3l0.1,7l-1.2,10.6l-1.2,6.6
	l-1.2,0.1l-1.9,1.6l-1.6,2.7l-0.3,4.9l-0.7,4.5v7l0.7,2.8l1.7,4.1l2.7,1.6h4.2l7.4-0.1l6.4,0.1l9.1,0.3c0.9,0,2.1,0,3.1,0.1h0.7
	l0.7-1.2l0.5-1.3l-0.3-2l-1.5-2.4l-1.4-2l-2.2-2.7l-1.2-3.8l-0.3-3.8l0.5-7.4l-0.6-1.7l-0.5-0.3l-0.6,0.1l-0.7,0.1l-0.1-2.3
	l-0.3-5.5v-8l0.6-9.7l2.7-7.8l1.3-6.4l1-5.1l-0.3-0.1l0.7-3.8l3.5-10.7l3.8-14.6l1-13.7l1-6l1.5-6.2l2.1-5.8l3-5.8l1.9-4.9l1.2-1.2
	l2.1-1.4l1.6-3.3l2.8-6.7l2.8-7.7l4.2-14.2l2.7-12.3l2.3-11.4l2.3-8.6l1.2-0.7l1.5,5.6l1.9,6.6l4.9,17.7l2.4,9.1l2.1,8.6l1.2,14.2
	l1.9,6.7v1.9l0.7,4.4V432l0.6,11.2l1,7.7l2.4,7.7l2.7,7l2.3,6l0.6,5.1l0.6,6.3l0.7,6.7l1.6,5.1l1.5,11.4v13.7l-0.7,1.9l-0.1,3.3
	l-0.5,8.4l-1,1.5l-0.8,4l0.6,4.9l2.1,3h78.2l1-1.4L546.2,542.9z M395.7,218.6L395.7,218.6l-1.4,6.4l-1.3,7.8l-1.5,6l-0.1,2.8
	l0.3,1.6l-0.3,4.1l-4.7,1.2l-4.4,2.2l-4.4,3.6l-4.5,4.2l-1.3,1.2l0.7-4.4l1.9-6l3-7.4l2.7-6.3l2.8-7.8l1.5-7.8l0.5-4.7l1.6-6.3
	l0.8-6.6l0.7-1.2l0.6-2.3l1.6-5.1l2.2,4.4l1.5,6.3l0.8,3l0.7,6.6L395.7,218.6L395.7,218.6z M486,229.3v-11l-0.7-9.8l-0.6-2.3
	l-0.1-3.6l0.6-4.4l-0.1-20.3v-8.7l-1.3-3.5v-2.3l2.3-2.7l2.3-2.8l2,5.1l3.5,6.3l5.8,8.4v4.1l-0.8,3.3l-1.2,3.6l-1.6,11v15.8
	l-1.5,7.1l-2.2,4.4l-1.3,0.6l-2.7,1.6L486,229.3L486,229.3z"/>
<line fill="none" stroke="#303030" stroke-width="7" stroke-miterlimit="10" x1="664.1" y1="9" x2="447.4" y2="9"/>
<path fill="none" stroke="#303030" stroke-width="9" stroke-miterlimit="10" d="M768.3,546.1c-0.3,0-0.6,0-0.9,0H371.8"/>
<rect x="230.8" y="11" fill="none" width="170.9" height="174.4"/>
<text transform="matrix(1 0 0 1 558.9551 55.6245)" fill="#303030" font-family="'Avenir-Medium'" font-size="57.5445">6’4”</text>
<rect x="150.8" y="497.9" fill="none" width="216.1" height="55.2"/>
<text transform="matrix(1 0 0 1 598.0498 537.8574)" fill="#303030" font-family="'Avenir-Medium'" font-size="57.5445">219lbs</text>
</svg>
