<?xml version="1.0" encoding="utf-8"?>
<!-- Generator: Adobe Illustrator 18.1.0, SVG Export Plug-In . SVG Version: 6.00 Build 0)  -->
<svg version="1.1" id="Layer_2" xmlns="http://www.w3.org/2000/svg" xmlns:xlink="http://www.w3.org/1999/xlink" x="0px" y="0px"
	 viewBox="417 -22 381 582" enable-background="new 417 -22 381 582" xml:space="preserve">
<path fill="#303030" stroke="#303030" stroke-miterlimit="10" d="M782,491.9l-1.3-1.2l-3.1-1.2l-3.1-0.6L769,488l-4.1-1.5
	c-0.5-0.4-0.9-0.7-1.3-1c-0.6-0.4-1.2-0.6-1.8-1c-0.7-0.2-1.6-0.5-2.5-0.6l-1.3-0.9l-3.1-1.9l-5.2-4.1l-2.5-1.9l-4.1-4.1l-2.2-2.2
	l-3.4-2.1l-1.9-1.5l-0.4-2.7l-1.2-11.5l-0.4-5.4l-0.4-10.5c-0.1-1.4-0.2-2.9-0.3-4.2c-0.2-0.2-0.4-0.4-0.6-0.5v-6.5l0.4-6.5l0.6-16
	l-0.6-8.2l-0.5-1.2l-0.4-3.4l-0.4-8.6c0.1-2.9,0.2-5.9,0.4-8.7c0.3-0.3,0.6-0.6,0.9-0.9c0.3-0.9,0.6-1.8,1-2.6c0-1.2,0-2.4,0-3.6
	c0-2.2,0.1-4.5,0.1-6.7c-0.3-1-0.6-2.1-0.9-3.3c-0.3-0.6-0.6-1.2-0.9-1.9l-0.4-3.4l2.5-10.6l1.5-9.6l1-12.7l0.4-9.8l0.6-2.1l0.4-2.5
	l-1.2-26.4l-0.9-2.7l-2.2-4.4l-1.2-6.2l-1.3-7.3l-0.7-7.2h1.7l8.2-8l1-1.8l0.1-3.6l0.5-1.2l2.9-2.9l1-2l1.1-5.4l1-4.5l1-0.9l1-2.9
	l0.6-2.6l0.1-2.9l1-0.5l1-3.4l1.5-4.4l2.4-4.1l2.5-6.4l1.9-10.3l0.6-7.5v-7.5l-0.5-2.7l-1.4-3.2l-0.6-4.4l-0.7-3.5l-2.2-7.2
	l-1.9-4.5l-3-5l-4.6-5.4l-0.5-5l-1.2-4.9l-1.9-5.5l1.1-1.5l1-5.4l-0.7-5.7v-6.7l-1-2.1l-1.5-3.1l-1.3-3.4l-2.9-2.5l-2.9-1.3
	l-2.6-1.3h-2.9h-5.9l-6.2-1.3l1.8-6.6l1-4.4l0.7-2.1v-1.5l1.3-5.2l1.3-8.5v-5.2l-1.8-2.1l-1.2-5l-0.6-5.9l-1.3-2.4l-2.1-4.9
	l-3.4-4.4l-3.4-3.4l-4.1-2.9l-3.9-1.8l-5.2-1.3h-8.2l-5.5,0.5l-5.5,1.8l-6,4.4l-2.1,2.6l-2.9,3.4l-1.3,1l-2.2,4.4l-0.2,3.9l-1,2.6
	l-1,2.9l0.3,7.6l0.9,11.2l0.1,1.8l-0.4,5.2l1,2.9l2.9,1.3l1,5l1.4,2.7h-1.5l-8.2,0.5l-5.4,0.7l-7,1.8l-5.9,1l-4.6,1
	c-0.6,0.3-1.1,0.5-1.7,0.7c-0.4,0.5-0.6,1-1,1.4c-0.7,0.4-1.5,0.6-2.4,1c-1.2,0.5-2.4,1-3.6,1.5c-0.7,0.9-1.6,1.7-2.5,2.5l-1.5,1.3
	l-2.4,4.4l-2.4,3.6l-1.5,4.4l0.7,2.5l3.6,10.2l1.3,2.4l3.6,8.1l-1.3,10.8l-2.1,8.4l-1,7.2l-1,11.1l-0.6,8.7l-0.7,5.2l-0.1,2.4
	l-0.7,3.7l-1.1,4.8l-1.9,6.2l-2.1,6.4l-1.5,7.2l-0.3,15.7l-0.4,11.7v1.5l-0.5,4.6l-0.5,6.7l0.5,0.5v1.3v3.7l1,4.4l0.6,6.1l0.5,7.7
	l1,1.7l1.6,2.6l2,3.7l2.6,5.6l2.4,2.4l4.2,3.1l2.9,2.1l5.4,5.4l1.5-0.1l1.1-0.6l0.3-0.7l0.5-0.1v9.2v15l-0.3,14l0.1,7.7l-0.7,6
	l-1.1,7.5l-0.7,1.1l-0.5,1.7l-0.5,4.1l-1.3,4.4l-3.6,10.2l-2.5,10.5l-1,4.9l-0.6,8l0.3,10.2l0.1,19.8l-0.3,0.4l-0.3,0.7l-0.1,4.6
	l-0.3,2.5l0.4,6.2l0.3,5.6l0.1,6.2l-1,9.5l-1,5.9l-1,0.1l-1.7,1.5l-1.5,2.4l-0.3,4.4l-0.6,4.1v6.2l0.6,2.5l1.6,3.6l2.4,1.5h3.7
	l6.7-0.1l5.7,0.1l11.5,0.5l0.6-1l0.4-1.1l-0.3-1.8l-1.3-2.2l-1.2-1.8l-2-2.4l-1-3.4l-0.3-3.4l0.4-6.7L645,474l-0.4-0.3l-0.5,0.1
	l-0.6,0.1l-0.1-2.1l-0.3-4.9v-7.2l0.5-8.6l2.4-7l1.1-5.7l0.9-4.6l-0.3-0.1l0.6-3.4l3.1-9.6l3.4-13.1l0.9-12.3l0.9-5.4l1.3-5.5
	l1.9-5.2l2.7-5.2l1.7-4.4l1-1l1.9-1.2l1.5-2.9l2.5-6l2.5-6.9l3.7-12.7l2.4-11l2.1-10.2l2.1-7.7l1-0.6l1.3,5l1.7,5.9l4.4,15.8
	l2.2,8.1l1.9,7.7l1,12.7l1.7,6v1.7l0.6,4v14.2v2.4l0.5,10l0.9,6.9l2.2,6.9l2.4,6.2l2.1,5.4l0.5,4.6l0.5,5.6l0.6,6l1.5,4.6l1.3,10.2
	v12.3l-0.6,1.7l-0.1,2.9l-0.4,7.5l-0.9,1.3l-0.5,3.6l0.5,4.4l1.9,2.7H782l0.9-1.2L782,491.9z M647.3,202.2l-1.1,5.6l-1.1,7l-1.3,5.4
	l-0.1,2.5l0.3,1.5l-0.3,3.6l-4.2,1l-4,2l-4,3.2l-4.1,3.7l-1.1,1l0.6-4l1.7-5.4l2.7-6.6l2.4-5.6l2.5-7l1.4-7l0.4-4.2l1.5-5.6l0.7-5.9
	l0.6-1l0.5-2.1l1.5-4.6l2,4l1.3,5.6l0.7,2.7l0.6,5.9v4.2L647.3,202.2L647.3,202.2z M728.2,211.6v-1.5v-8.4l-0.6-8.7l-0.5-2.1
	l-0.1-3.2l0.5-4l-0.1-18.2v-7.8l-1.1-3.1v-2l2.1-2.4l2.1-2.5l1.8,4.6l3.1,5.6l5.2,7.5v3.6l-0.7,2.9l-1,3.2l-1.5,9.9v14.1l-1.3,6.3
	l-2,3.9l-1.1,0.5l-2.4,1.5h-2.1L728.2,211.6L728.2,211.6z"/>
<line fill="none" stroke="#303030" stroke-width="7" stroke-miterlimit="10" x1="695.1" y1="14.7" x2="501.4" y2="14.7"/>
<path fill="none" stroke="#303030" stroke-width="9" stroke-miterlimit="10" d="M782.9,497.1c-0.3,0-0.5,0-0.8,0H428.5"/>
<rect x="500" y="16.5" fill="none" width="152.8" height="155.9"/>
<text transform="matrix(1 0 0 1 500.0291 58.6952)" fill="#303030" font-family="'Avenir-Medium'" font-size="51.4368">6’4”</text>
<rect x="428.5" y="451.7" fill="none" width="193.2" height="49.4"/>
<text transform="matrix(1 0 0 1 428.535 490.5243)" fill="#303030" font-family="'Avenir-Medium'" font-size="51.4368">219lbs</text>
</svg>
