<?xml version="1.0" encoding="utf-8"?>
<!-- Generator: Adobe Illustrator 18.1.0, SVG Export Plug-In . SVG Version: 6.00 Build 0)  -->
<svg version="1.1" id="Layer_2" xmlns="http://www.w3.org/2000/svg" xmlns:xlink="http://www.w3.org/1999/xlink" x="0px" y="0px"
	 viewBox="22 -13 154 271" enable-background="new 22 -13 154 271" xml:space="preserve">
<path fill="#303030" stroke="#181818" stroke-miterlimit="10" d="M145.1,238.7l-0.7-0.6l-1.5-0.6l-1.5-0.3l-2.7-0.4l-2-0.8
	c-0.2-0.2-0.4-0.4-0.6-0.5c-0.3-0.2-0.6-0.3-0.9-0.5c-0.4-0.1-0.8-0.2-1.2-0.3l-0.7-0.4l-1.5-0.9l-2.6-2l-1.3-0.9l-2-2l-1.1-1.1
	l-1.7-1l-0.9-0.8l-0.2-1.4l-0.6-5.7l-0.2-2.6l-0.2-5.2c0-0.7-0.1-1.4-0.1-2.1c-0.1-0.1-0.2-0.2-0.3-0.3v-3.2l0.2-3.2l0.3-7.9
	l-0.3-4.1l-0.3-0.6l-0.2-1.7l-0.2-4.3c0.1-1.5,0.1-2.9,0.2-4.4c0.1-0.1,0.3-0.3,0.4-0.4c0.2-0.4,0.3-0.9,0.5-1.3c0-0.6,0-1.2,0-1.8
	c0-1.1,0-2.2,0-3.3c-0.1-0.5-0.3-1.1-0.4-1.6c-0.1-0.3-0.3-0.6-0.4-0.9l-0.2-1.7l1.3-5.3l0.8-4.8l0.5-6.3l0.2-4.9l0.3-1l0.2-1.3
	l-0.6-13.1l-0.4-1.4l-1.1-2.2l-0.6-3.1l-0.7-3.7l-0.4-3.6h0.8l4.1-4l0.4-0.9l0-1.8l0.3-0.6l1.5-1.5l0.5-1l0.6-2.7l0.5-2.3l0.5-0.4
	l0.5-1.4l0.3-1.3l0.1-1.4l0.5-0.2l0.5-1.7l0.8-2.2l1.2-2l1.3-3.2l0.9-5.1l0.3-3.7V76l-0.3-1.3l-0.7-1.6l-0.3-2.1l-0.4-1.7l-1.1-3.6
	l-0.9-2.2l-1.5-2.5l-2.3-2.7l-0.3-2.5l-0.6-2.4l-0.9-2.7l0.6-0.7l0.5-2.7l-0.4-2.8v-3.3l-0.6-1l-0.8-1.5l-0.6-1.7l-1.4-1.3l-1.4-0.6
	l-1.4-0.8h-1.4H116l-3.1-0.6l0.9-3.3l0.5-2.2l0.4-1v-0.8l0.6-2.6l0.6-4.2v-2.6l-0.9-1l-0.6-2.5l-0.3-2.9l-0.6-1.2l-1-2.4l-1.7-2.2
	l-1.7-1.7l-2-1.4l-1.9-0.9L102.7,0h-4.1l-2.7,0.3l-2.7,0.9l-3,2.1l-1,1.3l-1.4,1.7L87,6.8l-1.1,2.1l-0.1,1.9l-0.5,1.3l-0.5,1.4
	l0.1,3.8l0.4,5.6l0.1,0.9l-0.2,2.6l0.5,1.4l1.4,0.7l0.5,2.5l0.7,1.3h-0.8l-4.1,0.3L80.8,33l-3.5,0.9l-2.9,0.5l-2.3,0.5
	c-0.3,0.1-0.6,0.2-0.8,0.4c-0.2,0.2-0.3,0.5-0.5,0.7c-0.4,0.2-0.8,0.3-1.2,0.5c-0.6,0.3-1.2,0.5-1.8,0.8c-0.4,0.4-0.8,0.8-1.2,1.2
	l-0.8,0.6l-1.2,2.2l-1.2,1.8l-0.8,2.2l0.4,1.3l1.8,5.1l0.6,1.2l1.8,4l-0.7,5.4l-1,4.2L65.1,70l-0.5,5.5l-0.3,4.3l-0.4,2.6l0,1.2
	l-0.4,1.9l-0.5,2.4L62,90.9l-1,3.2l-0.7,3.6l-0.1,7.8l-0.2,5.8v0.7l-0.3,2.3l-0.3,3.4l0.3,0.2v0.7v1.9l0.5,2.1l0.3,3l0.3,3.8
	l0.5,0.9l0.8,1.3l1,1.9l1.3,2.8l1.2,1.2l2.1,1.5l1.4,1l2.7,2.7l0.8,0l0.6-0.3l0.2-0.4l0.3,0v4.6v7.4l-0.1,7l0.1,3.8l-0.4,3l-0.6,3.7
	l-0.4,0.6l-0.3,0.8l-0.3,2l-0.6,2.2l-1.8,5.1l-1.2,5.2l-0.5,2.4l-0.4,3.8l0.1,5.1l0.1,9.9l-0.1,0.2l-0.2,0.4l-0.1,2.3l-0.2,1.3
	l0.2,3.1l0.2,2.7l0.1,3.1l-0.5,4.7l-0.5,2.9l-0.5,0l-0.8,0.7l-0.7,1.2l-0.2,2.2l-0.3,2.1v3.1l0.3,1.3l0.8,1.8l1.2,0.7h1.9l3.4-0.1
	l2.8,0l5.7,0.2l0.3-0.5l0.2-0.6l-0.2-0.9l-0.6-1.1l-0.6-0.9l-1-1.2l-0.5-1.7l-0.1-1.7l0.2-3.3l-0.1-1l-0.2-0.2l-0.3,0.1l-0.3,0.1
	l0-1l-0.2-2.4v-3.4l0.3-4.3l1.2-3.5l0.5-2.9l0.4-2.3l-0.2,0l0.3-1.7l1.5-4.8l1.7-6.5l0.4-6.1l0.4-2.6l0.7-2.7l0.9-2.6l1.4-2.6
	l0.9-2.1l0.5-0.5L88,177l0.8-1.4l1.3-3l1.3-3.4l1.9-6.3l1.2-5.5l1-5.1l1-3.8l0.5-0.3l0.7,2.5l0.9,2.9l2.1,7.8l1.1,4l0.9,3.8l0.5,6.3
	l0.9,3v0.9l0.3,2v7.1v1.2l0.3,4.9l0.4,3.4l1.1,3.4l1.2,3.1l1,2.6l0.3,2.3l0.3,2.8l0.3,3l0.8,2.3l0.7,5.1v6.1l-0.3,0.9l-0.1,1.4
	l-0.2,3.7l-0.4,0.7l-0.3,1.8l0.3,2.1l0.9,1.4h34.5l0.4-0.6L145.1,238.7z M78.1,94.6l-0.6,2.7l-0.6,3.5l-0.6,2.7l-0.1,1.2l0.1,0.8
	l-0.1,1.8l-2.1,0.4l-2,1l-2,1.6l-2,1.9l-0.6,0.5l0.3-2l0.8-2.7l1.3-3.3l1.2-2.7l1.2-3.5l0.7-3.5l0.2-2.1l0.8-2.8l0.4-2.9l0.3-0.4
	l0.3-1l0.8-2.3l1,2l0.6,2.7l0.4,1.3l0.3,2.9V94.6z M118.3,99.3v-0.8v-4.2L118,90l-0.3-1l-0.1-1.6l0.3-2l-0.1-9v-3.9l-0.6-1.5v-1
	l1-1.2l1-1.2l0.9,2.3l1.5,2.8l2.6,3.7v1.8l-0.4,1.4l-0.5,1.6l-0.8,4.9v7l-0.6,3.1l-1,1.9l-0.6,0.3l-1.2,0.8H118.3z"/>
</svg>
