<?xml version="1.0" encoding="utf-8"?>
<!-- Generator: Adobe Illustrator 18.1.0, SVG Export Plug-In . SVG Version: 6.00 Build 0)  -->
<svg version="1.1" id="Layer_2" xmlns="http://www.w3.org/2000/svg" xmlns:xlink="http://www.w3.org/1999/xlink" x="0px" y="0px"
	 viewBox="138 -26 494 706" enable-background="new 138 -26 494 706" xml:space="preserve">
<path fill="#303030" stroke="#303030" stroke-miterlimit="10" d="M591.8,626.9l-1.7-1.5l-3.9-1.5l-3.9-0.8l-6.9-1.1l-5.2-1.9
	c-0.6-0.5-1.1-0.9-1.7-1.3c-0.7-0.5-1.5-0.8-2.3-1.3c-0.9-0.2-2-0.6-3.1-0.8l-1.7-1.1l-3.9-2.4l-6.5-5.2l-3.2-2.4l-5.2-5.2l-2.8-2.8
	l-4.3-2.6l-2.4-1.9l-0.5-3.4l-1.5-14.5l-0.5-6.8l-0.5-13.2c-0.1-1.8-0.2-3.6-0.4-5.3c-0.2-0.2-0.5-0.5-0.8-0.6v-8.2l0.5-8.2
	l0.8-20.2l-0.8-10.4l-0.6-1.5l-0.5-4.3l-0.5-10.8c0.1-3.7,0.2-7.4,0.5-11c0.4-0.4,0.7-0.7,1.1-1.1c0.4-1.1,0.8-2.3,1.2-3.3
	c0-1.5,0-3,0-4.5c0-2.8,0.1-5.7,0.1-8.4c-0.4-1.3-0.7-2.7-1.1-4.2c-0.4-0.8-0.7-1.5-1.1-2.4l-0.5-4.3l3.2-13.4l1.9-12.1l1.3-16
	l0.5-12.3l0.8-2.6l0.5-3.2l-1.5-33.3l-1.1-3.4l-2.8-5.6l-1.5-7.8l-1.7-9.2l-0.9-9.1h2.1l10.4-10.1l1.2-2.3l0.1-4.5l0.6-1.5l3.7-3.7
	l1.3-2.5l1.4-6.8l1.3-5.7l1.2-1.1l1.3-3.6l0.7-3.3l0.1-3.6l1.2-0.6l1.3-4.3l1.9-5.5l3-5.2l3.2-8.1l2.4-13l0.7-9.4v-9.4l-0.6-3.4
	l-1.8-4l-0.7-5.5l-0.9-4.4l-2.8-9.1l-2.4-5.7l-3.8-6.3l-5.8-6.8l-0.6-6.3l-1.5-6.2l-2.4-6.9l1.4-1.9l1.3-6.8l-0.9-7.2v-8.4l-1.2-2.7
	l-1.9-3.9l-1.7-4.3l-3.6-3.2l-3.6-1.7L529,108h-3.6H518l-7.8-1.7l2.3-8.3l1.3-5.5l0.9-2.6v-1.9l1.7-6.5l1.7-10.7v-6.5l-2.3-2.6
	l-1.5-6.3l-0.7-7.4l-1.7-3l-2.6-6.2l-4.3-5.5l-4.3-4.3l-5.2-3.6l-4.9-2.3l-6.5-1.7h-10.4l-6.9,0.6l-6.9,2.3l-7.6,5.5l-2.6,3.3
	l-3.6,4.3l-1.7,1.3l-2.8,5.5l-0.2,4.9l-1.3,3.3l-1.2,3.7l0.4,9.6l1.1,14.1l0.1,2.3l-0.5,6.6l1.2,3.6l3.6,1.7l1.3,6.3l1.8,3.4H446
	l-10.4,0.6l-6.8,0.9l-8.8,2.3l-7.5,1.3l-5.8,1.3c-0.7,0.4-1.4,0.6-2.1,0.9c-0.5,0.6-0.8,1.2-1.3,1.8c-0.9,0.5-1.9,0.8-3,1.3
	c-1.5,0.6-3,1.3-4.5,1.9c-0.9,1.1-2,2.1-3.1,3.1l-1.9,1.7l-3,5.6l-3,4.5l-1.9,5.5l0.9,3.2l4.5,12.9l1.7,3l4.5,10.2l-1.7,13.6
	l-2.6,10.6l-1.3,9.1l-1.2,14l-0.8,11l-0.9,6.6l-0.1,3l-0.9,4.7l-1.4,6l-2.4,7.8l-2.6,8.1l-1.9,9.1l-0.4,19.8l-0.5,14.7v1.9l-0.6,5.8
	l-0.6,8.5l0.6,0.6v1.7v4.7l1.2,5.5l0.8,7.7l0.6,9.7l1.2,2.1l2,3.3l2.5,4.7l3.3,7l3,3l5.3,3.9l3.7,2.6l6.8,6.8l1.9-0.1l1.4-0.7
	l0.4-0.9l0.6-0.1v11.6v18.9l-0.4,17.7l0.1,9.7l-0.9,7.6l-1.4,9.4l-0.9,1.4l-0.6,2.1l-0.6,5.2l-1.7,5.5l-4.5,12.9l-3.1,13.2l-1.3,6.2
	l-0.8,10.1l0.4,12.9l0.1,25l-0.4,0.5l-0.4,0.9l-0.1,5.8l-0.4,3.2l0.5,7.8l0.4,7l0.1,7.8l-1.3,12l-1.3,7.4l-1.3,0.1l-2.1,1.9l-1.9,3
	l-0.4,5.6l-0.8,5.2v7.8l0.7,3.2l2,4.5l3,1.9h4.7l8.5-0.1l7.2,0.1l14.5,0.6l0.7-1.3l0.5-1.4l-0.4-2.3l-1.7-2.8l-1.5-2.3l-2.5-3
	l-1.2-4.3l-0.4-4.3l0.5-8.4l-0.4-2.6l-0.5-0.4l-0.6,0.1l-0.7,0.1l-0.1-2.6l-0.4-6.2v-9.1l0.6-10.9l3-8.8l1.4-7.2l1.1-5.8l-0.4-0.1
	l0.8-4.3l3.9-12.1l4.3-16.5l1.1-15.5l1.1-6.8l1.7-6.9l2.4-6.5l3.4-6.5l2.1-5.5l1.3-1.3l2.4-1.5l1.9-3.7l3.2-7.6l3.2-8.7l4.7-16
	l3-13.9l2.6-12.9l2.6-9.7l1.3-0.8l1.7,6.3l2.1,7.4l5.5,19.9l2.8,10.2l2.4,9.7l1.3,16l2.1,7.6v2.1l0.8,5v17.9v3l0.6,12.6l1.1,8.7
	l2.8,8.7l3,7.8l2.6,6.8l0.6,5.8l0.6,7.1l0.8,7.6l1.9,5.8l1.7,12.9v15.5l-0.8,2.1L503,607l-0.5,9.5l-1.1,1.7l-0.6,4.5l0.6,5.5
	l2.4,3.4h88l1.1-1.5L591.8,626.9z M422,261.7l-1.4,7l-1.4,8.8l-1.7,6.8l-0.1,3.1l0.4,1.9l-0.4,4.5l-5.3,1.2l-5,2.5l-5,4l-5.2,4.7
	l-1.4,1.3l0.8-5l2.1-6.8l3.4-8.3l3-7l3.1-8.8l1.8-8.8l0.5-5.3l1.9-7.1l0.9-7.4l0.8-1.2l0.6-2.6l1.9-5.8l2.5,5l1.7,7l0.9,3.4l0.8,7.5
	v5.3H422z M523.9,273.6v-1.9v-10.6l-0.8-11l-0.6-2.6l-0.1-4l0.6-5l-0.1-22.9v-9.8l-1.4-3.9v-2.5l2.6-3l2.6-3.1l2.3,5.8l3.9,7.1
	l6.5,9.4v4.5l-0.9,3.6l-1.3,4l-1.9,12.5v17.8l-1.7,7.9l-2.5,4.9l-1.4,0.6l-3,1.9h-2.7V273.6z"/>
<line fill="none" stroke="#303030" stroke-width="7" stroke-miterlimit="10" x1="482.2" y1="25.3" x2="238" y2="25.3"/>
<path fill="none" stroke="#303030" stroke-width="9" stroke-miterlimit="10" d="M592.9,633.5c-0.4,0-0.6,0-1,0H146.1"/>
<rect x="236.2" y="27.6" fill="none" width="192.6" height="196.5"/>
<text transform="matrix(1 0 0 1 236.2725 76.9948)" fill="#303030" font-family="'Avenir-Medium'" font-size="64.8471">6’4”</text>
<rect x="146.1" y="576.2" fill="none" width="243.6" height="62.3"/>
<text transform="matrix(1 0 0 1 146.1387 625.1895)" fill="#303030" font-family="'Avenir-Medium'" font-size="64.8471">219lbs</text>
</svg>
