<?xml version="1.0" encoding="utf-8"?>
<!-- Generator: Adobe Illustrator 18.1.0, SVG Export Plug-In . SVG Version: 6.00 Build 0)  -->
<svg version="1.1" id="Layer_2" xmlns="http://www.w3.org/2000/svg" xmlns:xlink="http://www.w3.org/1999/xlink" x="0px" y="0px"
	 viewBox="0 0 960 560" enable-background="new 0 0 960 560" xml:space="preserve">
<path fill="#303030" stroke="#303030" stroke-miterlimit="10" d="M592,531l-1.4-1.3l-3.3-1.3l-3.3-0.7l-5.8-0.9l-4.4-1.6
	c-0.5-0.4-0.9-0.8-1.4-1.1c-0.6-0.4-1.3-0.7-1.9-1.1c-0.8-0.2-1.7-0.5-2.6-0.7l-1.4-0.9l-3.3-2l-5.5-4.4l-2.7-2l-4.4-4.4l-2.4-2.4
	l-3.6-2.2l-2-1.6l-0.4-2.9l-1.3-12.2l-0.4-5.7l-0.4-11.1c-0.1-1.5-0.2-3-0.3-4.5c-0.2-0.2-0.4-0.4-0.7-0.5v-6.9l0.4-6.9l0.7-17
	l-0.7-8.8l-0.5-1.3l-0.4-3.6l-0.4-9.1c0.1-3.1,0.2-6.2,0.4-9.3c0.3-0.3,0.6-0.6,0.9-0.9c0.3-0.9,0.7-1.9,1-2.8c0-1.3,0-2.5,0-3.8
	c0-2.4,0.1-4.8,0.1-7.1c-0.3-1.1-0.6-2.3-0.9-3.5c-0.3-0.7-0.6-1.3-0.9-2l-0.4-3.6l2.7-11.3l1.6-10.2l1.1-13.5l0.4-10.4l0.7-2.2
	l0.4-2.7l-1.3-28.1l-0.9-2.9l-2.4-4.7l-1.3-6.6l-1.4-7.8l-0.8-7.7h1.8l8.8-8.5l1-1.9l0.1-3.8l0.5-1.3l3.1-3.1l1.1-2.1l1.2-5.7
	l1.1-4.8l1-0.9l1.1-3l0.6-2.8l0.1-3l1-0.5l1.1-3.6l1.6-4.6l2.5-4.4l2.7-6.8l2-11l0.6-7.9v-7.9l-0.5-2.9l-1.5-3.4l-0.6-4.6l-0.8-3.7
	l-2.4-7.7l-2-4.8l-3.2-5.3l-4.9-5.7l-0.5-5.3l-1.3-5.2l-2-5.8l1.2-1.6l1.1-5.7l-0.8-6.1v-7.1l-1-2.3l-1.6-3.3l-1.4-3.6l-3-2.7
	l-3-1.4l-3-1.6h-3h-6.3l-6.6-1.4l1.9-7l1.1-4.6l0.8-2.2v-1.6l1.4-5.5l1.4-9v-5.5l-1.9-2.2l-1.3-5.3l-0.6-6.2l-1.4-2.5l-2.2-5.2
	l-3.6-4.6l-3.6-3.6l-4.4-3l-4.1-1.9l-5.5-1.4h-8.8l-5.8,0.5l-5.8,1.9l-6.4,4.6l-2.2,2.8l-3,3.6l-1.4,1.1l-2.4,4.6l-0.2,4.1l-1.1,2.8
	l-1,3.1l0.3,8.1l0.9,11.9l0.1,1.9l-0.4,5.6l1,3l3,1.4L469,87l1.5,2.9H469l-8.8,0.5l-5.7,0.8l-7.4,1.9l-6.3,1.1l-4.9,1.1
	c-0.6,0.3-1.2,0.5-1.8,0.8c-0.4,0.5-0.7,1-1.1,1.5c-0.8,0.4-1.6,0.7-2.5,1.1c-1.3,0.5-2.5,1.1-3.8,1.6c-0.8,0.9-1.7,1.8-2.6,2.6
	l-1.6,1.4L420,109l-2.5,3.8l-1.6,4.6l0.8,2.7l3.8,10.9l1.4,2.5l3.8,8.6l-1.4,11.5l-2.2,8.9l-1.1,7.7l-1,11.8l-0.7,9.3l-0.8,5.6
	l-0.1,2.5l-0.8,4l-1.2,5.1l-2,6.6l-2.2,6.8l-1.6,7.7l-0.3,16.7l-0.4,12.4v1.6l-0.5,4.9l-0.5,7.2l0.5,0.5v1.4v4l1,4.6l0.7,6.5
	l0.5,8.2l1,1.8l1.7,2.8l2.1,4l2.8,5.9l2.5,2.5l4.5,3.3l3.1,2.2l5.7,5.7l1.6-0.1l1.2-0.6l0.3-0.8l0.5-0.1v9.8v15.9l-0.3,14.9l0.1,8.2
	l-0.8,6.4l-1.2,7.9l-0.8,1.2l-0.5,1.8l-0.5,4.4l-1.4,4.6l-3.8,10.9l-2.6,11.1l-1.1,5.2L425,435l0.3,10.9l0.1,21.1l-0.3,0.4l-0.3,0.8
	l-0.1,4.9l-0.3,2.7l0.4,6.6l0.3,5.9l0.1,6.6l-1.1,10.1l-1.1,6.2l-1.1,0.1l-1.8,1.6l-1.6,2.5l-0.3,4.7l-0.7,4.4v6.6l0.6,2.7l1.7,3.8
	l2.5,1.6h4l7.2-0.1l6.1,0.1l12.2,0.5l0.6-1.1l0.4-1.2l-0.3-1.9l-1.4-2.4l-1.3-1.9l-2.1-2.5l-1-3.6l-0.3-3.6l0.4-7.1l-0.3-2.2
	l-0.4-0.3l-0.5,0.1l-0.6,0.1l-0.1-2.2l-0.3-5.2V497l0.5-9.2l2.5-7.4l1.2-6.1l0.9-4.9l-0.3-0.1l0.7-3.6l3.3-10.2l3.6-13.9l0.9-13.1
	l0.9-5.7l1.4-5.8l2-5.5l2.9-5.5l1.8-4.6l1.1-1.1l2-1.3l1.6-3.1l2.7-6.4l2.7-7.3l4-13.5l2.5-11.7l2.2-10.9l2.2-8.2l1.1-0.7l1.4,5.3
	l1.8,6.2l4.6,16.8l2.4,8.6l2,8.2l1.1,13.5l1.8,6.4v1.8l0.7,4.2v15.1v2.5l0.5,10.6l0.9,7.3l2.4,7.3l2.5,6.6l2.2,5.7l0.5,4.9l0.5,6
	l0.7,6.4l1.6,4.9l1.4,10.9v13.1l-0.7,1.8l-0.2,2.9l-0.4,8l-0.9,1.4l-0.5,3.8l0.5,4.6l2,2.9H592l0.9-1.3L592,531z M448.8,223
	l-1.2,5.9l-1.2,7.4L445,242l-0.1,2.6l0.3,1.6l-0.3,3.8l-4.5,1l-4.2,2.1l-4.2,3.4l-4.4,4l-1.2,1.1l0.7-4.2l1.8-5.7l2.9-7l2.5-5.9
	l2.6-7.4l1.5-7.4l0.4-4.5l1.6-6l0.8-6.2l0.7-1l0.5-2.2l1.6-4.9l2.1,4.2l1.4,5.9l0.8,2.9l0.7,6.3v4.5H448.8z M534.7,233v-1.6v-8.9
	l-0.7-9.3l-0.5-2.2l-0.1-3.4l0.5-4.2l-0.1-19.3v-8.3l-1.2-3.3v-2.1l2.2-2.5l2.2-2.6l1.9,4.9l3.3,6l5.5,7.9v3.8l-0.8,3l-1.1,3.4
	l-1.6,10.5v15l-1.4,6.7l-2.1,4.1l-1.2,0.5l-2.5,1.6h-2.3V233z"/>
<line fill="none" stroke="#303030" stroke-width="7" stroke-miterlimit="10" x1="499.5" y1="23.6" x2="293.6" y2="23.6"/>
<path fill="none" stroke="#303030" stroke-width="9" stroke-miterlimit="10" d="M592.9,536.5c-0.3,0-0.5,0-0.8,0h-376"/>
<rect x="292.1" y="25.6" fill="none" width="162.4" height="165.7"/>
<text transform="matrix(1 0 0 1 292.1451 67.222)" fill="#303030" font-family="'Avenir-Medium'" font-size="54.6875">6’4”</text>
<rect x="216.1" y="488.2" fill="none" width="205.4" height="52.5"/>
<text transform="matrix(1 0 0 1 216.1328 529.5315)" fill="#303030" font-family="'Avenir-Medium'" font-size="54.6875">219lbs</text>
</svg>
